<svg width="31" height="31" viewBox="0 0 31 31" fill="none" xmlns="http://www.w3.org/2000/svg">
<mask id="mask0_0_138" style="mask-type:alpha" maskUnits="userSpaceOnUse" x="0" y="0" width="31" height="31">
<rect width="30.72" height="30.72" fill="#D9D9D9"/>
</mask>
<g mask="url(#mask0_0_138)">
<path d="M21.7601 28.1601C19.9894 28.1601 18.4801 27.5361 17.2321 26.2881C15.9841 25.0401 15.3601 23.5307 15.3601 21.7601C15.3601 19.9894 15.9841 18.4801 17.2321 17.2321C18.4801 15.9841 19.9894 15.3601 21.7601 15.3601C23.5308 15.3601 25.0401 15.9841 26.2881 17.2321C27.5361 18.4801 28.1601 19.9894 28.1601 21.7601C28.1601 23.5307 27.5361 25.0401 26.2881 26.2881C25.0401 27.5361 23.5308 28.1601 21.7601 28.1601ZM24.5761 24.5121C24.6828 24.4054 24.7094 24.2774 24.6561 24.1281C24.6028 23.9787 24.5014 23.8934 24.3521 23.8721C23.7974 23.7654 23.2801 23.5574 22.8001 23.2481C22.3201 22.9387 21.9308 22.5281 21.6321 22.0161C21.3334 21.5041 21.1681 20.9601 21.1361 20.3841C21.1041 19.8081 21.1841 19.2534 21.3761 18.7201C21.4188 18.5707 21.3921 18.4374 21.2961 18.3201C21.2001 18.2027 21.0774 18.1654 20.9281 18.2081C19.4988 18.4641 18.5228 19.2747 18.0001 20.6401C17.4774 22.0054 17.6854 23.2747 18.6241 24.4481C19.3708 25.3867 20.3521 25.8667 21.5681 25.8881C22.7841 25.9094 23.7868 25.4507 24.5761 24.5121ZM11.8401 28.1601L11.3281 24.0641C11.0508 23.9574 10.7894 23.8294 10.5441 23.6801C10.2988 23.5307 10.0588 23.3707 9.82409 23.2001L6.01609 24.8001L2.49609 18.7201L5.79209 16.2241C5.77076 16.0747 5.76009 15.9307 5.76009 15.7921V14.9281C5.76009 14.7894 5.77076 14.6454 5.79209 14.4961L2.49609 12.0001L6.01609 5.92006L9.82409 7.52006C10.0588 7.34939 10.3041 7.18939 10.5601 7.04006C10.8161 6.89073 11.0721 6.76273 11.3281 6.65606L11.8401 2.56006H18.8801L19.3921 6.65606C19.6694 6.76273 19.9308 6.89073 20.1761 7.04006C20.4214 7.18939 20.6614 7.34939 20.8961 7.52006L24.7041 5.92006L28.2241 12.0001L25.8561 13.7921C25.3868 13.5574 24.9068 13.3601 24.4161 13.2001C23.9254 13.0401 23.4028 12.9281 22.8481 12.8641L24.8641 11.3281L23.6161 9.15206L20.4481 10.4961C19.9788 10.0054 19.4614 9.59473 18.8961 9.26406C18.3308 8.93339 17.7174 8.68273 17.0561 8.51206L16.6401 5.12006H14.1121L13.6641 8.51206C13.0028 8.68273 12.3894 8.93339 11.8241 9.26406C11.2588 9.59473 10.7414 9.99473 10.2721 10.4641L7.10409 9.15206L5.85609 11.3281L8.60809 13.3761C8.50143 13.6961 8.42676 14.0161 8.38409 14.3361C8.34143 14.6561 8.32009 14.9974 8.32009 15.3601C8.32009 15.7014 8.34143 16.0321 8.38409 16.3521C8.42676 16.6721 8.50143 16.9921 8.60809 17.3121L5.85609 19.3921L7.10409 21.5681L10.2721 20.2241C10.6348 20.5867 11.0241 20.9121 11.4401 21.2001C11.8561 21.4881 12.3094 21.7281 12.8001 21.9201C12.8214 23.1361 13.0721 24.2774 13.5521 25.3441C14.0321 26.4107 14.6774 27.3494 15.4881 28.1601H11.8401ZM13.1521 19.2321C13.2801 18.8054 13.4348 18.3947 13.6161 18.0001C13.7974 17.6054 14.0054 17.2267 14.2401 16.8641C14.0054 16.6934 13.8241 16.4747 13.6961 16.2081C13.5681 15.9414 13.5041 15.6587 13.5041 15.3601C13.5041 14.8267 13.6908 14.3734 14.0641 14.0001C14.4374 13.6267 14.8908 13.4401 15.4241 13.4401C15.7228 13.4401 16.0108 13.5094 16.2881 13.6481C16.5654 13.7867 16.7894 13.9734 16.9601 14.2081C17.3228 13.9734 17.6961 13.7654 18.0801 13.5841C18.4641 13.4027 18.8694 13.2587 19.2961 13.1521C18.9121 12.4694 18.3788 11.9201 17.6961 11.5041C17.0134 11.0881 16.2561 10.8801 15.4241 10.8801C14.1654 10.8801 13.1041 11.3174 12.2401 12.1921C11.3761 13.0667 10.9441 14.1227 10.9441 15.3601C10.9441 16.1707 11.1414 16.9227 11.5361 17.6161C11.9308 18.3094 12.4694 18.8481 13.1521 19.2321Z" fill="#294C73"/>
</g>
</svg>
