<svg width="31" height="31" viewBox="0 0 31 31" fill="none" xmlns="http://www.w3.org/2000/svg">
<mask id="mask0_0_133" style="mask-type:alpha" maskUnits="userSpaceOnUse" x="0" y="0" width="31" height="31">
<rect width="30.72" height="30.72" fill="#292929"/>
</mask>
<g mask="url(#mask0_0_133)">
<path d="M3.35979 23.2639L1.27979 21.7599L7.67978 11.5199L11.5198 15.9999L16.6398 7.67994L20.1278 12.8959C19.6371 12.9173 19.1731 12.9759 18.7358 13.0719C18.2985 13.1679 17.8665 13.3013 17.4398 13.4719L16.7358 12.4159L11.8718 20.3199L7.99978 15.8079L3.35979 23.2639ZM27.6158 29.4399L23.6158 25.4399C23.1891 25.7386 22.7145 25.9626 22.1918 26.1119C21.6691 26.2613 21.1305 26.3359 20.5758 26.3359C18.9758 26.3359 17.6158 25.7759 16.4958 24.6559C15.3758 23.5359 14.8158 22.1759 14.8158 20.5759C14.8158 18.9759 15.3758 17.6159 16.4958 16.4959C17.6158 15.3759 18.9758 14.8159 20.5758 14.8159C22.1758 14.8159 23.5358 15.3759 24.6558 16.4959C25.7758 17.6159 26.3358 18.9759 26.3358 20.5759C26.3358 21.1306 26.2611 21.6693 26.1118 22.1919C25.9625 22.7146 25.7385 23.1999 25.4398 23.6479L29.4398 27.6159L27.6158 29.4399ZM20.5758 23.7759C21.4718 23.7759 22.2291 23.4666 22.8478 22.8479C23.4665 22.2293 23.7758 21.4719 23.7758 20.5759C23.7758 19.6799 23.4665 18.9226 22.8478 18.3039C22.2291 17.6853 21.4718 17.3759 20.5758 17.3759C19.6798 17.3759 18.9225 17.6853 18.3038 18.3039C17.6851 18.9226 17.3758 19.6799 17.3758 20.5759C17.3758 21.4719 17.6851 22.2293 18.3038 22.8479C18.9225 23.4666 19.6798 23.7759 20.5758 23.7759ZM23.4238 13.5359C23.0185 13.3653 22.5971 13.2266 22.1598 13.1199C21.7225 13.0133 21.2691 12.9493 20.7998 12.9279L27.3598 2.55994L29.4398 4.06394L23.4238 13.5359Z" fill="#294C73"/>
</g>
</svg>
