<svg width="31" height="31" viewBox="0 0 31 31" fill="none" xmlns="http://www.w3.org/2000/svg">
<mask id="mask0_0_125" style="mask-type:alpha" maskUnits="userSpaceOnUse" x="0" y="0" width="31" height="31">
<rect width="30.72" height="30.72" fill="#D9D9D9"/>
</mask>
<g mask="url(#mask0_0_125)">
<path d="M3.84006 29.44L7.42406 11.392L5.12006 12.288V16.64H2.56006V10.624L9.02406 7.87204C9.64273 7.61604 10.2721 7.58938 10.9121 7.79204C11.5521 7.99471 12.0534 8.38404 12.4161 8.96004L13.6961 11.008C14.2721 11.9254 15.0347 12.6667 15.9841 13.232C16.9334 13.7974 18.0054 14.08 19.2001 14.08V16.64C17.7921 16.64 16.4747 16.3467 15.2481 15.76C14.0214 15.1734 12.9921 14.4 12.1601 13.44L11.3921 17.28L14.0801 19.84V29.44H11.5201V21.76L8.83206 19.2L6.52806 29.44H3.84006ZM12.1601 7.04004C11.4561 7.04004 10.8534 6.78938 10.3521 6.28804C9.85073 5.78671 9.60006 5.18404 9.60006 4.48004C9.60006 3.77604 9.85073 3.17338 10.3521 2.67204C10.8534 2.17071 11.4561 1.92004 12.1601 1.92004C12.8641 1.92004 13.4667 2.17071 13.9681 2.67204C14.4694 3.17338 14.7201 3.77604 14.7201 4.48004C14.7201 5.18404 14.4694 5.78671 13.9681 6.28804C13.4667 6.78938 12.8641 7.04004 12.1601 7.04004ZM24.9601 29.44L23.6161 28.096L24.5121 27.2H17.9201V25.28H24.5121L23.6161 24.384L24.9601 23.04L28.1601 26.24L24.9601 29.44ZM21.1201 24L17.9201 20.8L21.1201 17.6L22.4641 18.944L21.5681 19.84H28.1601V21.76H21.5681L22.4641 22.656L21.1201 24Z" fill="#294C73"/>
</g>
</svg>
